<?xml version='1.0' encoding='iso-8859-1'?>
<!DOCTYPE svg PUBLIC '-//W3C//DTD SVG 1.1//EN' 'http://www.w3.org/Graphics/SVG/1.1/DTD/svg11.dtd'>
<svg version="1.1" xmlns="http://www.w3.org/2000/svg" viewBox="0 0 230.842 230.842" xmlns:xlink="http://www.w3.org/1999/xlink" enable-background="new 0 0 230.842 230.842">
  <path d="m219.784,152.029l-22.264-22.263c-1.407-1.407-3.314-2.197-5.303-2.197h-21.094v-5.437l26.396-26.39c1.407-1.406 2.197-3.314 2.197-5.304v-41.421c0-4.142-3.358-7.5-7.5-7.5-4.142,0-7.5,3.358-7.5,7.5v38.314l-13.594,13.59v-6.073c0-4.142-3.358-7.5-7.5-7.5h-4.549v-48.543c0-15.527-8.362-30.008-21.822-37.792-2.321-1.341-5.181-1.344-7.502-0.004-2.322,1.339-3.753,3.816-3.753,6.497v41.244c0,5.831-4.744,10.576-10.574,10.576-5.831,0-10.576-4.745-10.576-10.576v-41.25c0-2.681-1.431-5.158-3.753-6.497-2.323-1.339-5.184-1.337-7.503,0.005-13.459,7.788-21.82,22.27-21.82,37.796v48.544h-4.553c-4.142,0-7.5,3.358-7.5,7.5v6.073l-13.594-13.59v-38.314c0-4.142-3.358-7.5-7.5-7.5s-7.5,3.358-7.5,7.5v41.421c0,1.989 0.791,3.897 2.197,5.304l26.396,26.39v5.437h-21.091c-1.989,0-3.896,0.79-5.303,2.197l-22.264,22.263c-2.929,2.929-2.929,7.677 0,10.607 1.464,1.465 3.384,2.197 5.303,2.197 1.92,0 3.839-0.732 5.303-2.197l20.067-20.066h15.928l-24.988,32.566c-1.005,1.31-1.55,2.915-1.55,4.566v43.641c0,4.142 3.358,7.5 7.5,7.5s7.5-3.358 7.5-7.5v-41.095l13.961-18.194c3.13,27.77 26.748,49.427 55.34,49.427 28.591,0 52.208-21.657 55.338-49.426l13.959,18.193v41.095c0,4.142 3.358,7.5 7.5,7.5 4.142,0 7.5-3.358 7.5-7.5v-43.641c0-1.651-0.545-3.256-1.55-4.566l-24.987-32.566h15.929l20.067,20.066c1.464,1.465 3.384,2.197 5.303,2.197 1.919,0 3.839-0.732 5.303-2.197 2.929-2.93 2.929-7.679-2.84217e-14-10.607zm-133.013-113.224c-1.42109e-14-4.537 1.088-8.938 3.076-12.876v22.821c0,14.102 11.474,25.576 25.576,25.576 14.102,0 25.574-11.474 25.574-25.576v-22.82c1.988,3.938 3.076,8.339 3.076,12.875v48.544h-57.302v-48.544zm-12.052,118.971v-55.428h33.203v95.427c-18.872-3.531-33.203-20.118-33.203-39.999zm81.404,0c0,19.881-14.33,36.467-33.201,39.998v-95.426h33.201v55.428z"/>
</svg>
